<?xml version="1.0" standalone="no"?><!DOCTYPE svg PUBLIC "-//W3C//DTD SVG 1.1//EN" "http://www.w3.org/Graphics/SVG/1.1/DTD/svg11.dtd"><svg t="1563804653500" class="icon" viewBox="0 0 1024 1024" version="1.1" xmlns="http://www.w3.org/2000/svg" p-id="23154" xmlns:xlink="http://www.w3.org/1999/xlink" width="48" height="48"><defs><style type="text/css"></style></defs><path d="M725.333333 128 213.333333 128C166.4 128 128 166.4 128 213.333333l0 597.333333c0 46.933333 38.4 85.333333 85.333333 85.333333l597.333333 0c46.933333 0 85.333333-38.4 85.333333-85.333333L896 298.666667 725.333333 128zM512 810.666667c-72.533333 0-128-55.466667-128-128s55.466667-128 128-128c72.533333 0 128 55.466667 128 128S584.533333 810.666667 512 810.666667zM640 384 213.333333 384 213.333333 213.333333l426.666667 0L640 384z" p-id="23155" fill="#ffffff"></path></svg>